<svg width="118" height="51" viewBox="0 0 118 51" fill="none" xmlns="http://www.w3.org/2000/svg">
<path d="M17.5 16L2 2" stroke="#6B6C71" stroke-width="3" stroke-linecap="round"/>
<path d="M17.5 16.5L32.5 2" stroke="#6B6C71" stroke-width="3" stroke-linecap="round"/>
<path d="M3 31.5L17.5 17.5M17.5 17.5L32.5 31.5M17.5 17.5V47" stroke="#404040" stroke-width="3" stroke-linecap="round"/>
<circle cx="17.5" cy="47" r="2.75" fill="white" stroke="black" stroke-width="1.5"/>
<circle cx="10" cy="46.5" r="2" fill="#7CBE22"/>
<circle cx="25" cy="46.5" r="2" fill="#7CBE22"/>
<path d="M46.923 39.5V14.821H51.178L60.021 27.882L57.616 28.178L66.903 14.821H71.084V39.5H67.014V18.299L68.161 19.076L58.763 32.063L49.809 19.187L50.882 18.003V39.5H46.923ZM82.7592 39.5V18.262H74.7672V14.821H94.8212V18.262H86.8292V39.5H82.7592Z" fill="black"/>
<path d="M105.329 39.796C103.972 39.796 102.714 39.6357 101.555 39.315C100.42 38.9697 99.384 38.5627 98.4467 38.094V34.357C99.3593 34.8503 100.346 35.3067 101.407 35.726C102.492 36.1207 103.688 36.318 104.996 36.318C106.87 36.318 108.313 35.985 109.325 35.319C110.336 34.6283 110.842 33.6417 110.842 32.359C110.842 31.0517 110.348 30.0403 109.362 29.325C108.4 28.585 106.895 28.215 104.848 28.215H101.777V24.848H104.959C106.513 24.848 107.672 24.552 108.437 23.96C109.226 23.3433 109.621 22.5047 109.621 21.444C109.621 20.6547 109.411 20.0133 108.992 19.52C108.597 19.002 108.017 18.6197 107.253 18.373C106.488 18.1263 105.588 18.003 104.552 18.003C103.54 18.003 102.591 18.1263 101.703 18.373C100.815 18.595 99.9143 18.928 99.0017 19.372V15.894C99.8157 15.4993 100.728 15.1663 101.74 14.895C102.751 14.6237 103.824 14.488 104.959 14.488C106.315 14.488 107.512 14.6607 108.548 15.006C109.608 15.3267 110.496 15.7953 111.212 16.412C111.952 17.004 112.494 17.707 112.84 18.521C113.21 19.335 113.395 20.223 113.395 21.185C113.395 21.999 113.247 22.7143 112.951 23.331C112.679 23.9477 112.334 24.4657 111.915 24.885C111.52 25.2797 111.138 25.588 110.768 25.81C110.422 26.0073 110.176 26.1183 110.028 26.143C110.25 26.1923 110.595 26.365 111.064 26.661C111.557 26.9323 112.075 27.327 112.618 27.845C113.16 28.363 113.617 29.0167 113.987 29.806C114.381 30.5707 114.579 31.471 114.579 32.507C114.579 33.5677 114.369 34.542 113.95 35.43C113.555 36.318 112.963 37.095 112.174 37.761C111.384 38.4023 110.41 38.908 109.251 39.278C108.116 39.6233 106.809 39.796 105.329 39.796Z" fill="#8CC83D"/>
<path d="M2 2V44.5" stroke="#6B6C71" stroke-width="3" stroke-linecap="round"/>
<path d="M32.5 44.5V2" stroke="#6B6C71" stroke-width="3" stroke-linecap="round"/>
</svg>
